HIERARCHY
ROOT pelvis
{
	OFFSET 0.000000 0.000000 0.000000
	CHANNELS 6 Xposition Yposition Zposition Xrotation Yrotation Zrotation
	JOINT l_hip
	{
		OFFSET 0.195211 -0.245059 -0.022011
		CHANNELS 3 Xrotation Yrotation Zrotation
		JOINT l_knee
		{
			OFFSET 0.083896 -0.996307 -0.018298
			CHANNELS 3 Xrotation Yrotation Zrotation
			JOINT l_ankle
			{
				OFFSET -0.031606 -1.048662 -0.119000
				CHANNELS 3 Xrotation Yrotation Zrotation
				JOINT l_foot
				{
					OFFSET 0.063841 -0.149483 0.312863
					CHANNELS 3 Xrotation Yrotation Zrotation
					End Site
					{
						OFFSET 0.000000 0.000000 0.000000
					}
				}
			}
		}
	}
	JOINT r_hip
	{
		OFFSET -0.188785 -0.243354 -0.013119
		CHANNELS 3 Xrotation Yrotation Zrotation
		JOINT r_knee
		{
			OFFSET -0.098896 -1.013926 -0.025127
			CHANNELS 3 Xrotation Yrotation Zrotation
			JOINT r_ankle
			{
				OFFSET 0.038376 -1.049454 -0.114596
				CHANNELS 3 Xrotation Yrotation Zrotation
				JOINT r_foot
				{
					OFFSET -0.060300 -0.126955 0.322518
					CHANNELS 3 Xrotation Yrotation Zrotation
					End Site
					{
						OFFSET 0.000000 0.000000 0.000000
					}
				}
			}
		}
	}
	JOINT spine1
	{
		OFFSET -0.006861 0.282462 -0.060688
		CHANNELS 3 Xrotation Yrotation Zrotation
		JOINT spine2
		{
			OFFSET 0.009796 0.349212 -0.004686
			CHANNELS 3 Xrotation Yrotation Zrotation
			JOINT spine3
			{
				OFFSET 0.005545 0.134239 0.076232
				CHANNELS 3 Xrotation Yrotation Zrotation
				JOINT neck
				{
					OFFSET -0.005369 0.569656 -0.136135
					CHANNELS 3 Xrotation Yrotation Zrotation
					JOINT head
					{
						OFFSET 0.009621 0.170484 0.137338
						CHANNELS 3 Xrotation Yrotation Zrotation
						End Site
						{
							OFFSET 0.000000 0.000000 0.000000
						}
					}
				}
				JOINT l_collar
				{
					OFFSET 0.205981 0.322192 -0.100872
					CHANNELS 3 Xrotation Yrotation Zrotation
					JOINT l_shoulder
					{
						OFFSET 0.233388 0.086823 -0.019950
						CHANNELS 3 Xrotation Yrotation Zrotation
						JOINT l_elbow
						{
							OFFSET 0.687295 -0.032736 -0.075278
							CHANNELS 3 Xrotation Yrotation Zrotation
							JOINT l_wrist
							{
								OFFSET 0.651109 0.024639 0.000120
								CHANNELS 3 Xrotation Yrotation Zrotation
								JOINT l_hand
								{
									OFFSET 0.217934 -0.026487 -0.036124
									CHANNELS 3 Xrotation Yrotation Zrotation
									End Site
									{
										OFFSET 0.000000 0.000000 0.000000
									}
								}
							}
						}
					}
				}
				JOINT r_collar
				{
					OFFSET -0.210726 0.316244 -0.114374
					CHANNELS 3 Xrotation Yrotation Zrotation
					JOINT r_shoulder
					{
						OFFSET -0.244017 0.089684 -0.026814
						CHANNELS 3 Xrotation Yrotation Zrotation
						JOINT r_elbow
						{
							OFFSET -0.672913 -0.035979 -0.055153
							CHANNELS 3 Xrotation Yrotation Zrotation
							JOINT r_wrist
							{
								OFFSET -0.670689 0.023586 -0.009661
								CHANNELS 3 Xrotation Yrotation Zrotation
								JOINT r_hand
								{
									OFFSET -0.219937 -0.019827 -0.028502
									CHANNELS 3 Xrotation Yrotation Zrotation
									End Site
									{
										OFFSET 0.000000 0.000000 0.000000
									}
								}
							}
						}
					}
				}
			}
		}
	}
}
MOTION
Frames: 5
Frame Time: 0.016667
0.000000 0.000000 0.000000 0.000000 0.000000 0.000000 -2.711559 12.650291 30.440623 15.293849 2.500422 0.966344 0.000000 0.000000 0.000000 0.000000 0.000000 0.000000 -64.890202 12.229325 -43.406435 107.115354 -2.403956 25.887552 0.000000 0.000000 0.000000 0.000000 0.000000 0.000000 20.881097 -2.014968 5.493498 -3.113681 18.153674 1.884677 -0.313446 5.545387 4.087852 6.227363 -22.567665 11.540421 4.971820 -17.266061 6.603098 2.910626 20.046179 -0.470105 -19.097485 -9.982570 -48.574699 118.847637 -37.269016 158.203261 0.000000 0.000000 0.000000 0.000000 0.000000 0.000000 3.175464 11.881224 5.466530 -15.944138 35.224694 70.615539 84.486932 61.652510 -76.187390 0.000000 0.000000 0.000000 0.000000 0.000000 0.000000 
0.000000 0.000000 0.000000 0.000000 0.000000 0.000000 -1.833764 13.410621 30.186210 15.701532 2.607466 0.715678 0.000000 0.000000 0.000000 0.000000 0.000000 0.000000 -66.380473 12.054944 -43.620465 108.135302 -2.029336 27.382036 0.000000 0.000000 0.000000 0.000000 0.000000 0.000000 21.379861 -1.966757 5.320019 -2.687063 18.452235 1.490034 -0.418161 5.696877 3.977738 6.127116 -22.149295 11.188139 4.806151 -17.225853 6.431440 2.637333 19.993852 -0.213507 -19.125878 -9.553387 -48.319520 118.826109 -37.312161 158.257854 0.000000 0.000000 0.000000 0.000000 0.000000 0.000000 3.293138 12.189101 5.331465 -16.200266 34.922003 70.543795 85.069034 61.777093 -76.482299 0.000000 0.000000 0.000000 0.000000 0.000000 0.000000 
0.000000 0.000000 0.000000 0.000000 0.000000 0.000000 -1.087319 14.073500 29.935661 15.967080 2.703973 0.477849 0.000000 0.000000 0.000000 0.000000 0.000000 0.000000 -67.661261 11.951679 -43.843920 108.969755 -1.927956 28.765121 0.000000 0.000000 0.000000 0.000000 0.000000 0.000000 21.786751 -1.959075 5.201934 -2.382588 18.700817 1.146703 -0.500245 5.778142 3.875914 6.092846 -21.814446 10.874842 4.721327 -17.133159 6.223801 2.494384 19.928095 -0.120740 -19.213878 -9.291129 -48.077034 118.904416 -37.375016 158.413738 0.000000 0.000000 0.000000 0.000000 0.000000 0.000000 3.394456 12.418796 5.302169 -16.329065 34.695495 70.404096 85.383873 61.994043 -76.652384 0.000000 0.000000 0.000000 0.000000 0.000000 0.000000 
0.000000 0.000000 0.000000 0.000000 0.000000 0.000000 -0.486267 14.598079 29.670099 16.380175 2.726831 0.287094 0.000000 0.000000 0.000000 0.000000 0.000000 0.000000 -68.734206 11.939396 -43.981441 109.512497 -1.832863 29.825205 0.000000 0.000000 0.000000 0.000000 0.000000 0.000000 22.117843 -1.975524 5.101617 -2.157447 18.885944 0.872786 -0.547439 5.823757 3.778917 6.045965 -21.465688 10.613934 4.741244 -17.095676 5.993189 2.384034 19.863687 -0.147589 -19.250058 -9.122769 -47.727779 118.985836 -37.453423 158.528830 0.000000 0.000000 0.000000 0.000000 0.000000 0.000000 3.447647 12.586953 5.454855 -16.314862 34.523849 70.123992 85.440687 62.279782 -76.570641 0.000000 0.000000 0.000000 0.000000 0.000000 0.000000 
0.000000 0.000000 0.000000 0.000000 0.000000 0.000000 -0.120788 14.871586 29.457170 16.945077 2.753309 0.149464 0.000000 0.000000 0.000000 0.000000 0.000000 0.000000 -69.607498 11.996292 -44.007928 109.810920 -1.824263 30.607345 0.000000 0.000000 0.000000 0.000000 0.000000 0.000000 22.355807 -2.008520 5.039178 -2.032393 18.982717 0.710685 -0.549409 5.821463 3.721517 5.956691 -21.152077 10.371332 4.769028 -17.019895 5.799687 2.341269 19.840572 -0.194753 -19.272047 -8.988135 -47.511857 119.054125 -37.457587 158.617100 0.000000 0.000000 0.000000 0.000000 0.000000 0.000000 3.483844 12.635652 5.640381 -16.287818 34.391013 69.948416 85.411251 62.375886 -76.467321 0.000000 0.000000 0.000000 0.000000 0.000000 0.000000 
